<svg width="16" height="16" viewBox="0 0 16 16" fill="none" xmlns="http://www.w3.org/2000/svg">
<path d="M2.44794 1.88818C2.44751 1.88818 2.44703 1.88818 2.4466 1.88818C2.29527 1.88818 2.15294 1.94717 2.04547 2.05438C1.93681 2.16277 1.87695 2.30709 1.87695 2.46074V11.0461C1.87695 11.3609 2.13409 11.6177 2.45021 11.6185C3.7829 11.6217 6.01569 11.8994 7.556 13.5113V4.52652C7.556 4.4198 7.52874 4.31955 7.4773 4.23658C6.21308 2.20064 3.78365 1.89131 2.44794 1.88818Z" fill="#FFD05B"/>
<path d="M14.1233 11.0461V2.46074C14.1233 2.30709 14.0635 2.16277 13.9548 2.05438C13.8473 1.94717 13.7049 1.88818 13.5537 1.88818C13.5533 1.88818 13.5528 1.88818 13.5523 1.88818C12.2167 1.89136 9.78726 2.2007 8.52299 4.23664C8.47154 4.3196 8.44434 4.41986 8.44434 4.52658V13.5113C9.98465 11.8994 12.2174 11.6217 13.5501 11.6185C13.8662 11.6177 14.1233 11.3609 14.1233 11.0461Z" fill="#FFD05B"/>
<path d="M15.4277 3.86816H15.0126V11.0462C15.0126 11.85 14.3577 12.5054 13.5526 12.5074C12.4222 12.5101 10.5583 12.7312 9.23828 13.9805C11.5213 13.4215 13.928 13.7849 15.2996 14.0975C15.4708 14.1365 15.6478 14.0962 15.785 13.9868C15.9217 13.8777 16.0002 13.7147 16.0002 13.5396V4.44061C16.0002 4.12497 15.7434 3.86816 15.4277 3.86816Z" fill="#FFD05B"/>
<path d="M0.987586 11.0462V3.86816H0.572446C0.256863 3.86816 0 4.12497 0 4.44061V13.5395C0 13.7146 0.078438 13.8776 0.215166 13.9867C0.352271 14.096 0.529079 14.1364 0.700608 14.0973C2.0722 13.7847 4.47894 13.4214 6.76183 13.9804C5.44185 12.7311 3.57798 12.5101 2.44758 12.5074C1.64256 12.5054 0.987586 11.85 0.987586 11.0462Z" fill="#FFD05B"/>
</svg>
